<svg width="21" height="27" viewBox="0 0 21 27" fill="none" xmlns="http://www.w3.org/2000/svg">
<path d="M18.7542 12.3333C18.4188 11.8958 18.0104 11.5167 17.6313 11.1375C16.6542 10.2625 15.5458 9.63542 14.6125 8.71667C12.4396 6.5875 11.9583 3.07292 13.3438 0.375C11.9583 0.710417 10.7479 1.46875 9.71251 2.3C5.93543 5.33333 4.44793 10.6854 6.22709 15.2792C6.28543 15.425 6.34376 15.5708 6.34376 15.7604C6.34376 16.0813 6.12501 16.3729 5.83334 16.4896C5.49793 16.6354 5.14793 16.5479 4.87084 16.3146C4.78808 16.2452 4.71885 16.1612 4.66668 16.0667C3.01876 13.9813 2.75626 10.9917 3.86459 8.6C1.42918 10.5833 0.102095 13.9375 0.291678 17.1021C0.379178 17.8313 0.466678 18.5604 0.714595 19.2896C0.918761 20.1646 1.31251 21.0396 1.75001 21.8125C3.32501 24.3354 6.05209 26.1438 8.98334 26.5083C12.1042 26.9021 15.4438 26.3333 17.8354 24.175C20.5042 21.7542 21.4375 17.875 20.0667 14.55L19.8771 14.1708C19.5708 13.5 18.7542 12.3333 18.7542 12.3333ZM14.1458 21.5208C13.7375 21.8708 13.0667 22.25 12.5417 22.3958C10.9083 22.9792 9.27501 22.1625 8.31251 21.2C10.0479 20.7917 11.0833 19.5083 11.3896 18.2104C11.6375 17.0437 11.1708 16.0813 10.9813 14.9583C10.8063 13.8792 10.8354 12.9604 11.2292 11.9542C11.5063 12.5083 11.7979 13.0625 12.1479 13.5C13.2708 14.9583 15.0354 15.6 15.4146 17.5833C15.4729 17.7875 15.5021 17.9917 15.5021 18.2104C15.5458 19.4062 15.0208 20.7188 14.1458 21.5208Z" fill="#FFA629"/>
</svg>
