<svg width="30" height="23" viewBox="0 0 30 23" fill="none" xmlns="http://www.w3.org/2000/svg">
<path d="M8.18683 21.8132C8.63593 22.2623 9.36407 22.2623 9.81317 21.8132L17.1317 14.4946C17.5808 14.0455 17.5808 13.3174 17.1317 12.8683C16.6826 12.4192 15.9545 12.4192 15.5054 12.8683L9 19.3737L2.49462 12.8683C2.04551 12.4192 1.31738 12.4192 0.868272 12.8683C0.419169 13.3174 0.419169 14.0455 0.868272 14.4946L8.18683 21.8132ZM9 1H7.85L7.85 21H9H10.15L10.15 1L9 1Z" fill="white"/>
<path d="M21.8132 1.18683C21.3641 0.737724 20.6359 0.737724 20.1868 1.18683L12.8683 8.50538C12.4192 8.95449 12.4192 9.68262 12.8683 10.1317C13.3174 10.5808 14.0455 10.5808 14.4946 10.1317L21 3.62635L27.5054 10.1317C27.9545 10.5808 28.6826 10.5808 29.1317 10.1317C29.5808 9.68262 29.5808 8.95449 29.1317 8.50538L21.8132 1.18683ZM21 22H22.15V2H21H19.85V22H21Z" fill="white"/>
</svg>
